<?xml version="1.0" encoding="UTF-8"?>
<svg xmlns="http://www.w3.org/2000/svg" xmlns:xlink="http://www.w3.org/1999/xlink" viewBox="0 0 48 48" version="1.1">
<g>
<path style=" stroke:none;fill-rule:nonzero;fill:rgb(9.803922%,46.27451%,82.352941%);fill-opacity:1;" d="M 20 28 L 8 28 C 6.894531 28 6 27.105469 6 26 L 6 8 C 6 6.894531 6.894531 6 8 6 L 20 6 C 21.105469 6 22 6.894531 22 8 L 22 26 C 22 27.105469 21.105469 28 20 28 Z M 20 28 "/>
<path style=" stroke:none;fill-rule:nonzero;fill:rgb(12.941176%,58.823529%,95.294118%);fill-opacity:1;" d="M 40 16 L 28 16 C 26.894531 16 26 15.105469 26 14 L 26 8 C 26 6.894531 26.894531 6 28 6 L 40 6 C 41.105469 6 42 6.894531 42 8 L 42 14 C 42 15.105469 41.105469 16 40 16 Z M 40 16 "/>
<path style=" stroke:none;fill-rule:nonzero;fill:rgb(12.941176%,58.823529%,95.294118%);fill-opacity:1;" d="M 20 42 L 8 42 C 6.894531 42 6 41.105469 6 40 L 6 34 C 6 32.894531 6.894531 32 8 32 L 20 32 C 21.105469 32 22 32.894531 22 34 L 22 40 C 22 41.105469 21.105469 42 20 42 Z M 20 42 "/>
<path style=" stroke:none;fill-rule:nonzero;fill:rgb(9.803922%,46.27451%,82.352941%);fill-opacity:1;" d="M 40 42 L 28 42 C 26.894531 42 26 41.105469 26 40 L 26 22 C 26 20.894531 26.894531 20 28 20 L 40 20 C 41.105469 20 42 20.894531 42 22 L 42 40 C 42 41.105469 41.105469 42 40 42 Z M 40 42 "/>
</g>
</svg>
